<svg width="680" height="676" viewBox="0 0 680 676" xmlns="http://www.w3.org/2000/svg" font-family="Helvetica, Arial, sans-serif">
<rect width="680" height="676" fill="#FFFFFF"/>
<defs><marker id="arrow" viewBox="0 0 10 10" refX="8" refY="5" markerWidth="6" markerHeight="6" orient="auto-start-reverse"><path d="M2 1L8 5L2 9" fill="none" stroke="#5F5E5A" stroke-width="1.5" stroke-linecap="round" stroke-linejoin="round"/></marker></defs>

<rect x="90" y="50" width="190" height="56" rx="4" fill="#E1F5EE" stroke="#0F6E56"/>
<text x="185" y="71" text-anchor="middle" dominant-baseline="central" font-size="14" font-weight="500" fill="#085041">dbt build jobs</text>
<text x="185" y="89" text-anchor="middle" dominant-baseline="central" font-size="12" fill="#0F6E56">scheduled model runs</text>

<rect x="400" y="50" width="200" height="56" rx="4" fill="#E1F5EE" stroke="#0F6E56"/>
<text x="500" y="71" text-anchor="middle" dominant-baseline="central" font-size="14" font-weight="500" fill="#085041">Warehouse (DWH)</text>
<text x="500" y="89" text-anchor="middle" dominant-baseline="central" font-size="12" fill="#0F6E56">dbt marts · read-only</text>

<line x1="284" y1="78" x2="390" y2="78" stroke="#5F5E5A" stroke-width="1.5" marker-end="url(#arrow)"/>
<path d="M500 106 L500 140 L340 140 L340 188" fill="none" stroke="#5F5E5A" stroke-width="1.5" marker-end="url(#arrow)"/>

<rect x="60" y="155" width="560" height="347" rx="4" fill="none" stroke="#B4B2A9" stroke-dasharray="4 3"/>
<text x="76" y="172" dominant-baseline="central" font-size="12" fill="#5F5E5A">Mytrion backend (Fastify)</text>

<rect x="240" y="196" width="200" height="52" rx="4" fill="#EEEDFE" stroke="#534AB7"/>
<text x="340" y="215" text-anchor="middle" dominant-baseline="central" font-size="14" font-weight="500" fill="#3C3489">Read-only DWH pool</text>
<text x="340" y="233" text-anchor="middle" dominant-baseline="central" font-size="12" fill="#534AB7">parameterized SQL only</text>

<line x1="340" y1="248" x2="340" y2="268" stroke="#5F5E5A" stroke-width="1.5" marker-end="url(#arrow)"/>

<rect x="240" y="276" width="200" height="52" rx="4" fill="#EEEDFE" stroke="#534AB7"/>
<text x="340" y="295" text-anchor="middle" dominant-baseline="central" font-size="14" font-weight="500" fill="#3C3489">Analytics service</text>
<text x="340" y="313" text-anchor="middle" dominant-baseline="central" font-size="12" fill="#534AB7">curated SQL · 3 dimensions</text>

<line x1="340" y1="328" x2="340" y2="348" stroke="#5F5E5A" stroke-width="1.5" marker-end="url(#arrow)"/>

<rect x="240" y="356" width="200" height="52" rx="4" fill="#EEEDFE" stroke="#534AB7"/>
<text x="340" y="375" text-anchor="middle" dominant-baseline="central" font-size="14" font-weight="500" fill="#3C3489">Snapshot cache</text>
<text x="340" y="393" text-anchor="middle" dominant-baseline="central" font-size="12" fill="#534AB7">2h TTL · auto-warmer</text>

<path d="M320 408 L320 422 L200 422 L200 428" fill="none" stroke="#5F5E5A" stroke-width="1.5" marker-end="url(#arrow)"/>
<path d="M360 408 L360 422 L480 422 L480 428" fill="none" stroke="#5F5E5A" stroke-width="1.5" marker-end="url(#arrow)"/>

<rect x="90" y="436" width="220" height="52" rx="4" fill="#EEEDFE" stroke="#534AB7"/>
<text x="200" y="455" text-anchor="middle" dominant-baseline="central" font-size="14" font-weight="500" fill="#3C3489">GET /v1/analytics/:dim</text>
<text x="200" y="473" text-anchor="middle" dominant-baseline="central" font-size="12" fill="#534AB7">internal auth · ?fresh=1</text>

<rect x="370" y="436" width="220" height="52" rx="4" fill="#EEEDFE" stroke="#534AB7"/>
<text x="480" y="455" text-anchor="middle" dominant-baseline="central" font-size="14" font-weight="500" fill="#3C3489">analytics.snapshot tool</text>
<text x="480" y="473" text-anchor="middle" dominant-baseline="central" font-size="12" fill="#534AB7">RBAC re-check · audited</text>

<line x1="200" y1="488" x2="200" y2="552" stroke="#5F5E5A" stroke-width="1.5" marker-end="url(#arrow)"/>
<line x1="480" y1="488" x2="480" y2="552" stroke="#5F5E5A" stroke-width="1.5" marker-end="url(#arrow)"/>

<rect x="90" y="560" width="220" height="56" rx="4" fill="#FAECE7" stroke="#993C1D"/>
<text x="200" y="581" text-anchor="middle" dominant-baseline="central" font-size="14" font-weight="500" fill="#712B13">Analytics dashboard</text>
<text x="200" y="599" text-anchor="middle" dominant-baseline="central" font-size="12" fill="#993C1D">React · 5-min poll · refresh</text>

<rect x="370" y="560" width="220" height="56" rx="4" fill="#FAECE7" stroke="#993C1D"/>
<text x="480" y="581" text-anchor="middle" dominant-baseline="central" font-size="14" font-weight="500" fill="#712B13">Department agents</text>
<text x="480" y="599" text-anchor="middle" dominant-baseline="central" font-size="12" fill="#993C1D">all 10 · OpenAI chat</text>

<rect x="120" y="634" width="12" height="12" rx="2" fill="#E1F5EE" stroke="#0F6E56"/>
<text x="140" y="640" dominant-baseline="central" font-size="12" fill="#444441">data layer</text>
<rect x="250" y="634" width="12" height="12" rx="2" fill="#EEEDFE" stroke="#534AB7"/>
<text x="270" y="640" dominant-baseline="central" font-size="12" fill="#444441">Mytrion backend</text>
<rect x="430" y="634" width="12" height="12" rx="2" fill="#FAECE7" stroke="#993C1D"/>
<text x="450" y="640" dominant-baseline="central" font-size="12" fill="#444441">consumers</text>
</svg>
